<?xml version="1.0" encoding="UTF-8"?>
<svg width="700pt" height="700pt" version="1.1" viewBox="0 0 700 700" xmlns="http://www.w3.org/2000/svg" xmlns:xlink="http://www.w3.org/1999/xlink">
 <defs>
  <symbol id="u" overflow="visible">
   <path d="m8.1094-0.48438c-0.42969 0.21875-0.86719 0.38281-1.3125 0.48438-0.44922 0.11328-0.92188 0.17188-1.4219 0.17188-1.4688 0-2.6328-0.41016-3.4844-1.2344-0.85547-0.82031-1.2812-1.9375-1.2812-3.3438s0.42578-2.5156 1.2812-3.3281c0.85156-0.82031 2.0156-1.2344 3.4844-1.2344 0.5 0 0.97266 0.058594 1.4219 0.17188 0.44531 0.10547 0.88281 0.26172 1.3125 0.46875v1.8281c-0.42969-0.28125-0.85156-0.48828-1.2656-0.625-0.40625-0.13281-0.83594-0.20312-1.2812-0.20312-0.8125 0-1.4531 0.26172-1.9219 0.78125-0.46094 0.52344-0.6875 1.2344-0.6875 2.1406 0 0.91797 0.22656 1.6367 0.6875 2.1562 0.46875 0.52344 1.1094 0.78125 1.9219 0.78125 0.44531 0 0.875-0.066406 1.2812-0.20312 0.41406-0.13281 0.83594-0.34766 1.2656-0.64062z"/>
  </symbol>
  <symbol id="e" overflow="visible">
   <path d="m5.9219-4.8125c-0.17969-0.082031-0.35938-0.14453-0.54688-0.1875-0.17969-0.039062-0.35938-0.0625-0.54688-0.0625-0.54297 0-0.96484 0.17969-1.2656 0.53125-0.29297 0.34375-0.4375 0.83984-0.4375 1.4844v3.0469h-2.1094v-6.6094h2.1094v1.0781c0.26953-0.42578 0.58203-0.73828 0.9375-0.9375 0.35156-0.19531 0.77344-0.29688 1.2656-0.29688 0.070313 0 0.14844 0.007813 0.23438 0.015625 0.082031 0 0.20312 0.011719 0.35938 0.03125z"/>
  </symbol>
  <symbol id="b" overflow="visible">
   <path d="m7.625-3.3281v0.60938h-4.9531c0.050781 0.49219 0.22656 0.85938 0.53125 1.1094 0.3125 0.25 0.74219 0.375 1.2969 0.375 0.44531 0 0.89844-0.0625 1.3594-0.1875 0.46875-0.13281 0.94531-0.33594 1.4375-0.60938v1.625c-0.49219 0.1875-0.98438 0.32812-1.4844 0.42188-0.5 0.10156-1 0.15625-1.5 0.15625-1.1992 0-2.1328-0.30078-2.7969-0.90625-0.66797-0.61328-1-1.4688-1-2.5625 0-1.082 0.32031-1.9297 0.96875-2.5469 0.65625-0.61328 1.5547-0.92188 2.7031-0.92188 1.0391 0 1.875 0.3125 2.5 0.9375s0.9375 1.4609 0.9375 2.5zm-2.1875-0.70312c0-0.39453-0.12109-0.71875-0.35938-0.96875-0.23047-0.25-0.53125-0.375-0.90625-0.375-0.40625 0-0.74219 0.12109-1 0.35938-0.25 0.23047-0.40625 0.55859-0.46875 0.98438z"/>
  </symbol>
  <symbol id="d" overflow="visible">
   <path d="m3.9844-2.9688c-0.44922 0-0.78125 0.074219-1 0.21875-0.21875 0.14844-0.32812 0.36719-0.32812 0.65625 0 0.27344 0.085938 0.48438 0.26562 0.64062 0.17578 0.14844 0.42578 0.21875 0.75 0.21875 0.39453 0 0.72656-0.14062 1-0.42188 0.26953-0.28906 0.40625-0.64844 0.40625-1.0781v-0.23438zm3.2188-0.79688v3.7656h-2.125v-0.98438c-0.28125 0.40625-0.60156 0.70312-0.95312 0.89062-0.35547 0.17578-0.78906 0.26562-1.2969 0.26562-0.6875 0-1.2461-0.19531-1.6719-0.59375-0.42969-0.40625-0.64062-0.92578-0.64062-1.5625 0-0.76953 0.26562-1.3359 0.79688-1.7031 0.53906-0.36328 1.3789-0.54688 2.5156-0.54688h1.25v-0.17188c0-0.33203-0.13672-0.57812-0.40625-0.73438-0.26172-0.15625-0.66797-0.23438-1.2188-0.23438-0.46094 0-0.88672 0.046875-1.2812 0.14062-0.38672 0.09375-0.74609 0.23047-1.0781 0.40625v-1.6094c0.45703-0.11328 0.91016-0.19531 1.3594-0.25 0.45703-0.050781 0.91406-0.078125 1.375-0.078125 1.1953 0 2.0547 0.23438 2.5781 0.70312 0.53125 0.46875 0.79688 1.2344 0.79688 2.2969z"/>
  </symbol>
  <symbol id="c" overflow="visible">
   <path d="m3.3281-8.4844v1.875h2.1719v1.5h-2.1719v2.8125c0 0.30469 0.054687 0.51172 0.17188 0.625 0.125 0.10547 0.36719 0.15625 0.73438 0.15625h1.0938v1.5156h-1.8281c-0.83594 0-1.4297-0.17188-1.7812-0.51562-0.34375-0.35156-0.51562-0.94531-0.51562-1.7812v-2.8125h-1.0469v-1.5h1.0469v-1.875z"/>
  </symbol>
  <symbol id="k" overflow="visible">
   <path d="m5.5156-5.6406v-3.5469h2.125v9.1875h-2.125v-0.95312c-0.29297 0.38672-0.61719 0.67188-0.96875 0.85938-0.34375 0.17578-0.74609 0.26562-1.2031 0.26562-0.82422 0-1.4961-0.32031-2.0156-0.96875-0.52344-0.64453-0.78125-1.4766-0.78125-2.5 0-1.0195 0.25781-1.8516 0.78125-2.5 0.51953-0.64453 1.1914-0.96875 2.0156-0.96875 0.44531 0 0.84766 0.09375 1.2031 0.28125 0.35156 0.17969 0.67578 0.46094 0.96875 0.84375zm-1.3906 4.2812c0.44531 0 0.78906-0.16406 1.0312-0.5 0.23828-0.33203 0.35938-0.8125 0.35938-1.4375 0-0.63281-0.12109-1.1133-0.35938-1.4375-0.24219-0.33203-0.58594-0.5-1.0312-0.5-0.44922 0-0.79297 0.16797-1.0312 0.5-0.24219 0.32422-0.35938 0.80469-0.35938 1.4375 0 0.625 0.11719 1.1055 0.35938 1.4375 0.23828 0.33594 0.58203 0.5 1.0312 0.5z"/>
  </symbol>
  <symbol id="j" overflow="visible">
   <path d="m4.5312-1.3594c0.45703 0 0.80078-0.16406 1.0312-0.5 0.23828-0.33203 0.35938-0.8125 0.35938-1.4375 0-0.63281-0.12109-1.1133-0.35938-1.4375-0.23047-0.33203-0.57422-0.5-1.0312-0.5-0.44922 0-0.79688 0.16797-1.0469 0.5-0.24219 0.33594-0.35938 0.8125-0.35938 1.4375s0.11719 1.1055 0.35938 1.4375c0.25 0.33594 0.59766 0.5 1.0469 0.5zm-1.4062-4.2812c0.28906-0.38281 0.61328-0.66406 0.96875-0.84375 0.35156-0.1875 0.76562-0.28125 1.2344-0.28125 0.8125 0 1.4766 0.32422 2 0.96875 0.51953 0.64844 0.78125 1.4805 0.78125 2.5 0 1.0234-0.26172 1.8555-0.78125 2.5-0.52344 0.64844-1.1875 0.96875-2 0.96875-0.46875 0-0.88281-0.089844-1.2344-0.26562-0.35547-0.1875-0.67969-0.47266-0.96875-0.85938v0.95312h-2.1094v-9.1875h2.1094z"/>
  </symbol>
  <symbol id="g" overflow="visible">
   <path d="m0.14062-6.6094h2.125l1.7812 4.4844 1.5-4.4844h2.125l-2.7812 7.2344c-0.28125 0.73828-0.60938 1.2539-0.98438 1.5469-0.375 0.28906-0.86719 0.4375-1.4688 0.4375h-1.2344v-1.3906h0.67188c0.35156 0 0.61328-0.058594 0.78125-0.17188 0.16406-0.11719 0.28906-0.32031 0.375-0.60938l0.0625-0.1875z"/>
  </symbol>
  <symbol id="i" overflow="visible">
   <path d="m9.0312-0.65625c-0.5625 0.28125-1.1523 0.49219-1.7656 0.625-0.60547 0.13281-1.2344 0.20312-1.8906 0.20312-1.4688 0-2.6328-0.41016-3.4844-1.2344-0.85547-0.82031-1.2812-1.9375-1.2812-3.3438 0-1.4141 0.42969-2.5312 1.2969-3.3438 0.875-0.8125 2.0703-1.2188 3.5938-1.2188 0.59375 0 1.1562 0.058594 1.6875 0.17188 0.53906 0.10547 1.0469 0.26172 1.5156 0.46875v1.8281c-0.49219-0.28125-0.98047-0.48828-1.4688-0.625-0.48047-0.13281-0.96484-0.20312-1.4531-0.20312-0.90625 0-1.6055 0.25781-2.0938 0.76562-0.49219 0.5-0.73438 1.2188-0.73438 2.1562s0.23438 1.6641 0.70312 2.1719c0.47656 0.51172 1.1484 0.76562 2.0156 0.76562 0.23828 0 0.45703-0.015625 0.65625-0.046875 0.20703-0.03125 0.39062-0.078125 0.54688-0.14062v-1.7188h-1.3906v-1.5156h3.5469z"/>
  </symbol>
  <symbol id="f" overflow="visible">
   <path d="m7.6719-4.0312v4.0312h-2.1406v-3.0781c0-0.57031-0.011719-0.96875-0.03125-1.1875-0.023438-0.21875-0.0625-0.375-0.125-0.46875-0.085938-0.14453-0.19922-0.25391-0.34375-0.32812-0.14844-0.070312-0.30859-0.10938-0.48438-0.10938-0.4375 0-0.78906 0.17188-1.0469 0.51562-0.25 0.33594-0.375 0.80469-0.375 1.4062v3.25h-2.1094v-6.6094h2.1094v0.96875c0.32031-0.38281 0.66016-0.66406 1.0156-0.84375 0.36328-0.1875 0.75781-0.28125 1.1875-0.28125 0.76953 0 1.3516 0.23438 1.75 0.70312 0.39453 0.46094 0.59375 1.1367 0.59375 2.0312z"/>
  </symbol>
  <symbol id="t" overflow="visible">
   <path d="m1.1094-8.8125h2.2812v3.2188l3.2656-3.2188h2.6406l-4.2344 4.1719 4.6719 4.6406h-2.8438l-3.5-3.4688v3.4688h-2.2812z"/>
  </symbol>
  <symbol id="h" overflow="visible">
   <path d="m7.6719-4.0312v4.0312h-2.1406v-3.0781c0-0.57031-0.011719-0.96875-0.03125-1.1875-0.023438-0.21875-0.0625-0.375-0.125-0.46875-0.085938-0.14453-0.19922-0.25391-0.34375-0.32812-0.14844-0.070312-0.30859-0.10938-0.48438-0.10938-0.4375 0-0.78906 0.17188-1.0469 0.51562-0.25 0.33594-0.375 0.80469-0.375 1.4062v3.25h-2.1094v-9.1875h2.1094v3.5469c0.32031-0.38281 0.66016-0.66406 1.0156-0.84375 0.36328-0.1875 0.75781-0.28125 1.1875-0.28125 0.76953 0 1.3516 0.23438 1.75 0.70312 0.39453 0.46094 0.59375 1.1367 0.59375 2.0312z"/>
  </symbol>
  <symbol id="a" overflow="visible">
   <path d="m4.1562-5.2656c-0.46875 0-0.82812 0.17188-1.0781 0.51562-0.24219 0.33594-0.35938 0.82031-0.35938 1.4531 0 0.63672 0.11719 1.1211 0.35938 1.4531 0.25 0.33594 0.60938 0.5 1.0781 0.5s0.82031-0.16406 1.0625-0.5c0.25-0.33203 0.375-0.81641 0.375-1.4531 0-0.63281-0.125-1.1172-0.375-1.4531-0.24219-0.34375-0.59375-0.51562-1.0625-0.51562zm0-1.5c1.1445 0 2.0352 0.30859 2.6719 0.92188 0.63281 0.60547 0.95312 1.4531 0.95312 2.5469 0 1.0859-0.32031 1.9336-0.95312 2.5469-0.63672 0.61719-1.5273 0.92188-2.6719 0.92188-1.1367 0-2.0273-0.30469-2.6719-0.92188-0.64844-0.61328-0.96875-1.4609-0.96875-2.5469 0-1.0938 0.32031-1.9414 0.96875-2.5469 0.64453-0.61328 1.5352-0.92188 2.6719-0.92188z"/>
  </symbol>
  <symbol id="s" overflow="visible">
   <path d="m1.1094-8.8125h2.2812v7.0938h3.9844v1.7188h-6.2656z"/>
  </symbol>
  <symbol id="r" overflow="visible">
   <path d="m5.375-9.1875v1.3906h-1.1719c-0.30469 0-0.51562 0.058594-0.64062 0.17188-0.11719 0.10547-0.17188 0.28906-0.17188 0.54688v0.46875h1.8125v1.5h-1.8125v5.1094h-2.1094v-5.1094h-1.0469v-1.5h1.0469v-0.46875c0-0.71875 0.19531-1.25 0.59375-1.5938 0.40625-0.34375 1.0312-0.51562 1.875-0.51562z"/>
  </symbol>
  <symbol id="q" overflow="visible">
   <path d="m7.1406-5.5156c0.26953-0.40625 0.58594-0.71094 0.95312-0.92188 0.375-0.21875 0.78125-0.32812 1.2188-0.32812 0.75781 0 1.3359 0.23438 1.7344 0.70312 0.39453 0.46094 0.59375 1.1367 0.59375 2.0312v4.0312h-2.125v-3.4531c0.007813-0.050781 0.015625-0.10156 0.015625-0.15625v-0.23438c0-0.46875-0.070312-0.80469-0.20312-1.0156-0.13672-0.20703-0.35938-0.3125-0.67188-0.3125-0.40625 0-0.71875 0.16797-0.9375 0.5-0.21094 0.32422-0.32031 0.79688-0.32812 1.4219v3.25h-2.125v-3.4531c0-0.72656-0.0625-1.1953-0.1875-1.4062-0.125-0.20703-0.35156-0.3125-0.67188-0.3125-0.40625 0-0.72656 0.16797-0.95312 0.5-0.21875 0.32422-0.32812 0.79688-0.32812 1.4219v3.25h-2.125v-6.6094h2.125v0.96875c0.25781-0.375 0.55469-0.65625 0.89062-0.84375 0.34375-0.1875 0.71875-0.28125 1.125-0.28125 0.45703 0 0.85938 0.10938 1.2031 0.32812 0.35156 0.21875 0.61719 0.52734 0.79688 0.92188z"/>
  </symbol>
  <symbol id="p" overflow="visible">
   <path d="m1.1094-8.8125h2.5469l3.2031 6.0469v-6.0469h2.1562v8.8125h-2.5469l-3.2031-6.0469v6.0469h-2.1562z"/>
  </symbol>
  <symbol id="o" overflow="visible">
   <path d="m0.9375-2.5781v-4.0312h2.1406v0.65625c0 0.35547-0.007813 0.80469-0.015625 1.3438v1.0938c0 0.53125 0.007812 0.91797 0.03125 1.1562 0.03125 0.23047 0.078125 0.39844 0.14062 0.5 0.09375 0.13672 0.20703 0.24609 0.34375 0.32812 0.14453 0.074219 0.30469 0.10938 0.48438 0.10938 0.4375 0 0.78125-0.16406 1.0312-0.5 0.25781-0.34375 0.39062-0.81641 0.39062-1.4219v-3.2656h2.1094v6.6094h-2.1094v-0.95312c-0.32422 0.38672-0.66406 0.67188-1.0156 0.85938-0.35547 0.17578-0.74609 0.26562-1.1719 0.26562-0.77344 0-1.3594-0.23438-1.7656-0.70312-0.39844-0.46875-0.59375-1.1484-0.59375-2.0469z"/>
  </symbol>
  <symbol id="n" overflow="visible">
   <path d="m1.1094-8.8125h3.7812c1.1133 0 1.9727 0.25 2.5781 0.75 0.60156 0.49219 0.90625 1.1992 0.90625 2.125 0 0.92969-0.30469 1.6406-0.90625 2.1406-0.60547 0.49219-1.4648 0.73438-2.5781 0.73438h-1.5v3.0625h-2.2812zm2.2812 1.6406v2.4688h1.25c0.4375 0 0.77344-0.10156 1.0156-0.3125 0.23828-0.21875 0.35938-0.52344 0.35938-0.92188 0-0.39453-0.12109-0.69531-0.35938-0.90625-0.24219-0.21875-0.57812-0.32812-1.0156-0.32812z"/>
  </symbol>
  <symbol id="m" overflow="visible">
   <path d="m1.0156-6.6094h2.1094v6.4844c0 0.88281-0.21484 1.5625-0.64062 2.0312-0.41797 0.46875-1.0312 0.70312-1.8438 0.70312h-1.0469v-1.3906h0.375c0.39453 0 0.66406-0.09375 0.8125-0.28125 0.15625-0.17969 0.23438-0.53125 0.23438-1.0625zm0-2.5781h2.1094v1.7188h-2.1094z"/>
  </symbol>
  <symbol id="l" overflow="visible">
   <path d="m6.3594-6.4062v1.7188c-0.29297-0.19531-0.58594-0.34375-0.875-0.4375-0.28125-0.09375-0.57812-0.14062-0.89062-0.14062-0.59375 0-1.0586 0.17188-1.3906 0.51562-0.32422 0.34375-0.48438 0.82812-0.48438 1.4531 0 0.61719 0.16016 1.0938 0.48438 1.4375 0.33203 0.34375 0.79688 0.51562 1.3906 0.51562 0.33203 0 0.64453-0.046875 0.9375-0.14062 0.30078-0.10156 0.57812-0.25 0.82812-0.4375v1.7344c-0.33594 0.11719-0.67188 0.20312-1.0156 0.26562-0.33594 0.0625-0.67188 0.09375-1.0156 0.09375-1.1875 0-2.1211-0.30469-2.7969-0.92188-0.67969-0.61328-1.0156-1.4609-1.0156-2.5469 0-1.0938 0.33594-1.9414 1.0156-2.5469 0.67578-0.61328 1.6094-0.92188 2.7969-0.92188 0.34375 0 0.67969 0.03125 1.0156 0.09375 0.34375 0.054687 0.67969 0.14062 1.0156 0.26562z"/>
  </symbol>
 </defs>
 <g>
  <path d="m227.43 106.35c3.7305 29.797-17.398 56.98-47.195 60.715-29.793 3.7305-56.977-17.398-60.707-47.199-3.7344-29.797 17.395-56.98 47.191-60.715 29.797-3.7305 56.977 17.398 60.711 47.199"/>
  <path d="m652.17 86.996c-22.902-32.145-48.215-54.27-74.195-68.039-25.945-13.816-52.223-18.996-75.645-18.957-30.469 0.042969-56.133 8.3008-74.387 16.344-18.273 8.0938-29.309 16.117-30.605 17.055-0.74609 0.54687-1.4492 1.1328-2.125 1.7305-34.949 14.562-77.031 19.645-107.04 24.488-24.977 1.8125-48.852 20.293-46.535 41.434 0.63281 5.7695 2.6562 11.762 6.0078 17.418 4.1953 9.0898 14.828 30.527 32.227 55.137 10.645 14.988 23.848 31.238 39.773 46.496l-30.871 7.1875v-29.082h-29.004v253.82h-203.06c-8.0078 0-14.504 6.4961-14.504 14.504v93.469h422.22v-93.469c0-8.0078-6.4961-14.504-14.504-14.504h-161.15v-212.38l41.691-9.707c15.754 13.52 33.859 25.777 54.531 34.984 2.5469 1.1289 5.2031 1.6641 7.8242 1.6641 7.418 0 14.496-4.293 17.691-11.508 4.3281-9.7656-0.078125-21.191-9.8477-25.516-7.25-3.1914-14.211-6.9414-20.875-11.109l103.24-24.039v365.58h29.004l0.003906-421.23h-29.004v43.293l-116.65 27.156c-9.7891-7.3672-18.812-15.551-27.027-24.062-5.9141-1.8398-11.66-4.0547-17.18-6.7461-13.969-6.7812-26.516-16.203-37.289-28.016-2.5273-2.7812-4.8086-5.543-6.9102-8.2617-11.152-14.398-16.574-27.293-18.555-32.75l-0.027344-0.066406-0.09375-0.26562c-2.0781-6.1094-1.6523-12.668 1.2031-18.465 0.61328-1.2422 1.3398-2.4023 2.1328-3.5 2.9102-4.0312 6.9688-7.0664 11.773-8.7031 2.5195-0.85156 5.1367-1.2891 7.7773-1.2891 10.336 0 19.523 6.5742 22.867 16.352l0.1875 0.47266c0.26172 0.65625 0.71484 1.7227 1.3594 3.1094 1.2422 2.625 3.3906 6.7461 6.5625 11.375 5.5508 8.1328 15.281 19.328 30.137 26.523 4.4258 2.1445 9.043 3.8164 13.871 5.0742 24.426-4.8906 47.035-13.465 75.723-28.008 20.414-12.383 26.539-26.887 26.453-40.988 9.9805-3.0859 21.82-5.5195 34.109-5.418 13.398 0.03125 27.266 2.5898 41.629 9.8828 14.34 7.3516 29.586 19.621 44.895 41.125 6.9336 9.7617 18.602 14.164 29.668 12.305 5.2422 3.8516 11.551 5.8633 17.926 5.8633 6.0742 0 12.199-1.8242 17.52-5.6172 13.594-9.6875 16.754-28.559 7.0664-42.148z"/>
  <path d="m309.19 111.14c-3.2656-4.7734-5.5469-9.0781-6.9492-12.059-0.69922-1.4883-1.1836-2.6406-1.4688-3.3516-0.14453-0.35547-0.23438-0.59375-0.27734-0.71484-3.4492-10.09-14.418-15.484-24.52-12.047-2.9648 1.0039-5.5039 2.6719-7.5547 4.7617-4.9531 5.0469-6.9609 12.617-4.5312 19.77h-0.003906c0.54688 1.4609 6.3242 18.367 22.023 36.715 0.83203 0.97266 1.6719 1.9453 2.5586 2.9258 8.8359 9.6875 20.609 19.535 35.836 26.93 2.5586 1.2461 5.2539 2.3906 8.0039 3.4805 13.547 5.3672 29.359 8.7188 47.281 8.7188h0.14453c10.746 0 22.219-1.1641 34.449-3.6875 10.457-2.1562 17.191-12.383 15.035-22.844-2.1562-10.457-12.387-17.191-22.844-15.031-9.8594 2.0312-18.699 2.8906-26.641 2.8906-13.043-0.015625-23.656-2.293-32.637-5.7852-2.0352-0.79297-4.0117-1.625-5.8867-2.5312-15.141-7.3359-25.465-18.551-32.02-28.141z"/>
  <use x="42.210938" y="596.261719" xlink:href="#u"/>
  <use x="51.082031" y="596.261719" xlink:href="#e"/>
  <use x="57.042969" y="596.261719" xlink:href="#b"/>
  <use x="65.242188" y="596.261719" xlink:href="#d"/>
  <use x="73.398438" y="596.261719" xlink:href="#c"/>
  <use x="79.175781" y="596.261719" xlink:href="#b"/>
  <use x="87.371094" y="596.261719" xlink:href="#k"/>
  <use x="100.230469" y="596.261719" xlink:href="#j"/>
  <use x="108.882813" y="596.261719" xlink:href="#g"/>
  <use x="120.96875" y="596.261719" xlink:href="#i"/>
  <use x="130.890625" y="596.261719" xlink:href="#d"/>
  <use x="139.046875" y="596.261719" xlink:href="#f"/>
  <use x="151.859375" y="596.261719" xlink:href="#t"/>
  <use x="161.226562" y="596.261719" xlink:href="#h"/>
  <use x="169.832031" y="596.261719" xlink:href="#a"/>
  <use x="178.132812" y="596.261719" xlink:href="#a"/>
  <use x="186.4375" y="596.261719" xlink:href="#f"/>
  <use x="199.25" y="596.261719" xlink:href="#s"/>
  <use x="206.953125" y="596.261719" xlink:href="#d"/>
  <use x="215.109375" y="596.261719" xlink:href="#g"/>
  <use x="42.210938" y="608.347656" xlink:href="#r"/>
  <use x="47.472656" y="608.347656" xlink:href="#e"/>
  <use x="53.433594" y="608.347656" xlink:href="#a"/>
  <use x="61.734375" y="608.347656" xlink:href="#q"/>
  <use x="78.539062" y="608.347656" xlink:href="#c"/>
  <use x="84.316406" y="608.347656" xlink:href="#h"/>
  <use x="92.921875" y="608.347656" xlink:href="#b"/>
  <use x="105.324219" y="608.347656" xlink:href="#p"/>
  <use x="115.441406" y="608.347656" xlink:href="#a"/>
  <use x="123.746094" y="608.347656" xlink:href="#o"/>
  <use x="132.347656" y="608.347656" xlink:href="#f"/>
  <use x="145.160156" y="608.347656" xlink:href="#n"/>
  <use x="154.019531" y="608.347656" xlink:href="#e"/>
  <use x="159.980469" y="608.347656" xlink:href="#a"/>
  <use x="168.285156" y="608.347656" xlink:href="#m"/>
  <use x="172.425781" y="608.347656" xlink:href="#b"/>
  <use x="180.625" y="608.347656" xlink:href="#l"/>
  <use x="187.789062" y="608.347656" xlink:href="#c"/>
 </g>
</svg>
